HIERARCHY
ROOT Hips
{
	OFFSET 0.00000 0.00000 0.00000
	CHANNELS 6 Xposition Yposition Zposition Zrotation Yrotation Xrotation 
	JOINT LHipJoint
	{
		OFFSET 0 0 0
		CHANNELS 3 Zrotation Yrotation Xrotation
		JOINT LeftHip
		{
			OFFSET 1.29432 -1.88279 0.59910
			CHANNELS 3 Zrotation Yrotation Xrotation
			JOINT LeftKnee
			{
				OFFSET 2.63039 -7.22694 0.00000
				CHANNELS 3 Zrotation Yrotation Xrotation
				JOINT LeftAnkle
				{
					OFFSET 2.70674 -7.43672 0.00000
					CHANNELS 3 Zrotation Yrotation Xrotation
					JOINT LeftToe
					{
						OFFSET 0.15066 -0.41394 2.09027
						CHANNELS 3 Zrotation Yrotation Xrotation
						End Site
						{
							OFFSET 0.00000 -0.00000 1.07518
						}
					}
				}
			}
		}
	}
	JOINT RHipJoint
	{
		OFFSET 0 0 0
		CHANNELS 3 Zrotation Yrotation Xrotation
		JOINT RightHip
		{
			OFFSET -1.37068 -1.88279 0.59910
			CHANNELS 3 Zrotation Yrotation Xrotation
			JOINT RightKnee
			{
				OFFSET -2.57023 -7.06166 0.00000
				CHANNELS 3 Zrotation Yrotation Xrotation
				JOINT RightAnkle
				{
					OFFSET -2.76461 -7.59570 0.00000
					CHANNELS 3 Zrotation Yrotation Xrotation
					JOINT RightToe
					{
						OFFSET -0.24175 -0.64785 2.19719
						CHANNELS 3 Zrotation Yrotation Xrotation
						End Site
						{
							OFFSET -0.00000 -0.00000 1.14803
						}
					}
				}
			}
		}
	}
	JOINT lowerback
	{
		OFFSET 0 0 0
		CHANNELS 3 Zrotation Yrotation Xrotation
		JOINT Chest
		{
			OFFSET -0.03138 2.03983 -0.23106
			CHANNELS 3 Zrotation Yrotation Xrotation
			JOINT Chest2
			{
				OFFSET -0.00325 2.06238 -0.06878
				CHANNELS 3 Zrotation Yrotation Xrotation
				JOINT lowerneck
				{
					OFFSET 0 0 0
					CHANNELS 3 Zrotation Yrotation Xrotation
					JOINT Neck
					{
						OFFSET -0.00002 1.75318 0.18090
						CHANNELS 3 Zrotation Yrotation Xrotation
						JOINT Head
						{
							OFFSET 0.08806 1.75856 -0.25387
							CHANNELS 3 Zrotation Yrotation Xrotation
							End Site
							{
								OFFSET 0.02554 1.78597 -0.10684
							}
						}
					}
				}
				JOINT LeftCollar
				{
					OFFSET 0 0 0
					CHANNELS 3 Zrotation Yrotation Xrotation
					JOINT LeftShoulder
					{
						OFFSET 3.09657 1.33597 -0.04414
CHANNELS 3 Zrotation Xrotation Yrotation
						JOINT LeftElbow
						{
OFFSET 0 -5.342980 -0.000000
CHANNELS 3 Zrotation Xrotation Yrotation
							JOINT LeftWrist
							{
OFFSET 0 -3.672620 -0.000000
CHANNELS 3 Zrotation Xrotation Yrotation
								JOINT lhand
								{
									OFFSET 0 0 0
CHANNELS 3 Zrotation Xrotation Yrotation
									JOINT LFingers
									{
OFFSET 0 -0.599300 -0.000000
CHANNELS 3 Zrotation Xrotation Yrotation
										End Site
										{
OFFSET 0 -0.483170 -0.000000
										}
									}
								}
								JOINT LThumb
								{
OFFSET 0 0.000000 0.000000
CHANNELS 3 Zrotation Xrotation Yrotation
									End Site
									{
OFFSET 0 -0.490550 0.490550
									}
								}
							}
						}
					}
				}
				JOINT RightCollar
				{
					OFFSET 0 0 0
					CHANNELS 3 Zrotation Yrotation Xrotation
					JOINT RightShoulder
					{
						OFFSET -3.16460 1.32273 -0.23382
CHANNELS 3 Zrotation Xrotation Yrotation
						JOINT RightElbow
						{
OFFSET 0 -5.549670 0.033480
CHANNELS 3 Zrotation Xrotation Yrotation
							JOINT RightWrist
							{
OFFSET 0 -3.694010 0.000000
CHANNELS 3 Zrotation Xrotation Yrotation
								JOINT rhand
								{
									OFFSET 0 0 0
CHANNELS 3 Zrotation Xrotation Yrotation
									JOINT RFingers
									{
OFFSET 0 -0.638110 0.000000
CHANNELS 3 Zrotation Xrotation Yrotation
										End Site
										{
OFFSET 0 -0.514460 0.000000
										}
									}
								}
								JOINT RThumb
								{
OFFSET 0 0.000000 0.000000
CHANNELS 3 Zrotation Xrotation Yrotation
									End Site
									{
OFFSET 0 -0.522320 0.522320
									}
								}
							}
						}
					}
				}
			}
		}
	}
}
MOTION
Frames: 12
Frame Time: 0.008333333333333333
16.633600 18.692500 16.236000 176.931000 -5.239700 -175.627000 0.000000 0.000000 0.000000 -21.517400 1.203000 -2.891200 7.557000 15.783500 50.950700 1.421100 2.955600 21.767000 0.090200 -1.937600 -5.333100 0.000000 0.000000 0.000000 19.730700 11.285000 -19.288700 -3.190500 -10.997300 32.270700 -0.295600 -5.395300 -13.673800 -0.059400 -1.572000 4.324200 -3.300900 -2.153200 0.404800 1.307900 -2.898800 1.260300 3.165400 -1.504200 1.298800 6.576100 4.322400 -8.274100 0.755700 5.130600 3.808100 -0.633300 2.729400 2.833100 0.000000 -0.000000 0.000000 0.347000 -14.347100 -4.235600 17.750700 -27.836700 4.432200 -0.219700 -41.600000 -32.670500 0.000000 0.000000 0.000000 -7.125000 0.000000 0.000000 -36.328500 58.742600 13.307000 0.000000 -0.000000 0.000000 0.778500 11.214700 -20.684100 -8.671000 -14.634500 -1.115500 -19.485300 32.306200 -21.327800 0.000000 0.000000 0.000000 7.125000 0.000000 -0.000000 5.819100 7.578000 5.027600
16.642202 18.691674 16.167411 177.068479 -5.297884 -175.857634 0.000000 0.000000 0.000000 -21.259533 1.232036 -3.151359 7.758336 15.935178 51.681819 1.334067 3.062128 21.026528 0.096548 -2.002546 -5.512724 0.000000 0.000000 0.000000 20.047728 11.216711 -18.661367 -3.165896 -10.958723 32.140996 -0.314982 -5.423697 -13.979860 -0.100231 -1.973582 5.434851 -3.253271 -2.090846 0.581044 1.317216 -2.823337 1.311197 3.155145 -1.466975 1.244334 6.748437 4.347041 -8.112693 0.738985 5.166284 3.708972 -0.670750 2.748444 2.776756 0.000000 0.000000 0.000000 0.070088 -13.768598 -3.477249 17.403546 -27.382869 4.273348 -2.144107 -42.392383 -32.434907 0.000000 0.000000 0.000000 -7.125000 0.000000 0.000000 -37.905904 58.136640 13.393807 0.000000 0.000000 0.000000 0.878792 11.191862 -20.258816 -8.740942 -14.746437 -1.133342 -19.439511 32.015090 -21.118651 0.000000 0.000000 0.000000 7.125000 0.000000 0.000000 5.833299 7.801122 5.014115
16.650804 18.690847 16.098821 177.205958 -5.356069 -176.088269 0.000000 0.000000 0.000000 -21.001665 1.261072 -3.411517 7.959671 16.086856 52.412937 1.247035 3.168655 20.286057 0.102896 -2.067491 -5.692349 0.000000 0.000000 0.000000 20.364757 11.148422 -18.034034 -3.141293 -10.920146 32.011293 -0.334365 -5.452095 -14.285920 -0.141061 -2.375164 6.545502 -3.205641 -2.028492 0.757287 1.326531 -2.747873 1.362095 3.144891 -1.429751 1.189868 6.920774 4.371682 -7.951287 0.722269 5.201969 3.609845 -0.708200 2.767488 2.720412 0.000000 0.000000 0.000000 -0.206823 -13.190097 -2.718897 17.056393 -26.929037 4.114495 -4.068515 -43.184766 -32.199315 0.000000 0.000000 0.000000 -7.125000 0.000000 0.000000 -39.483308 57.530680 13.480614 0.000000 0.000000 0.000000 0.979084 11.169024 -19.833532 -8.810883 -14.858373 -1.151184 -19.393722 31.723980 -20.909503 0.000000 0.000000 0.000000 7.125000 0.000000 0.000000 5.847497 8.024244 5.000630
16.657109 18.690769 16.031323 177.345467 -5.382750 -176.275638 0.000000 0.000000 0.000000 -20.764061 1.284601 -3.735572 8.164077 16.237036 53.149042 1.154686 3.309110 19.467339 0.121577 -2.226860 -6.134129 0.000000 0.000000 0.000000 20.662462 11.102515 -17.460218 -3.115002 -10.878715 31.872213 -0.353899 -5.454368 -14.566770 -0.181384 -2.732300 7.534921 -3.081035 -1.953044 0.961076 1.300549 -2.653290 1.366961 3.056796 -1.379724 1.066622 7.106700 4.411219 -7.814749 0.723431 5.215183 3.564932 -0.742871 2.763111 2.687033 0.000000 0.000000 0.000000 -0.429266 -12.546963 -1.890890 16.711447 -26.474102 3.958815 -5.577637 -43.658914 -31.926204 0.000000 0.000000 0.000000 -7.125000 0.000000 0.000000 -40.632080 56.989910 13.434390 0.000000 0.000000 0.000000 1.121830 11.187726 -19.436758 -8.878262 -14.966110 -1.168481 -19.482945 31.520187 -20.701966 0.000000 0.000000 0.000000 7.125000 0.000000 0.000000 5.775444 8.226723 4.915979
16.658912 18.692159 15.965964 177.488957 -5.347666 -176.378184 0.000000 0.000000 0.000000 -20.566181 1.297335 -4.184895 8.374503 16.384282 53.894923 1.051915 3.516080 18.495219 0.164436 -2.571347 -7.089872 0.000000 0.000000 0.000000 20.922282 11.100486 -16.991324 -3.085403 -10.831686 31.714750 -0.373732 -5.405424 -14.798193 -0.220712 -3.002300 8.286662 -2.805513 -1.851926 1.218869 1.205365 -2.521220 1.281581 2.816095 -1.304599 0.808529 7.319267 4.479958 -7.726965 0.759641 5.184344 3.626309 -0.772095 2.712815 2.698678 0.000000 0.000000 0.000000 -0.544921 -11.777118 -0.926320 16.370829 -26.017003 3.809354 -6.272583 -43.509152 -31.579539 0.000000 0.000000 0.000000 -7.125000 0.000000 0.000000 -40.940506 56.576947 13.127353 0.000000 0.000000 0.000000 1.347807 11.287868 -19.095877 -8.940616 -15.065613 -1.184708 -19.836859 31.487583 -20.497587 0.000000 0.000000 0.000000 7.125000 0.000000 0.000000 5.534292 8.388730 4.691806
16.660715 18.693549 15.900605 177.632446 -5.312583 -176.480730 0.000000 0.000000 0.000000 -20.368301 1.310069 -4.634219 8.584929 16.531527 54.640803 0.949144 3.723050 17.523099 0.207295 -2.915833 -8.045615 0.000000 0.000000 0.000000 21.182103 11.098458 -16.522430 -3.055803 -10.784658 31.557288 -0.393565 -5.356480 -15.029616 -0.260040 -3.272300 9.038402 -2.529991 -1.750807 1.476661 1.110182 -2.389149 1.196201 2.575394 -1.229474 0.550437 7.531834 4.548698 -7.639181 0.795852 5.153506 3.687686 -0.801319 2.662518 2.710322 0.000000 0.000000 0.000000 -0.660576 -11.007272 0.038251 16.030212 -25.559903 3.659892 -6.967529 -43.359389 -31.232874 0.000000 0.000000 0.000000 -7.125000 0.000000 0.000000 -41.248933 56.163984 12.820316 0.000000 0.000000 0.000000 1.573783 11.388010 -18.754997 -9.002970 -15.165117 -1.200935 -20.190774 31.454978 -20.293209 0.000000 0.000000 0.000000 7.125000 0.000000 0.000000 5.293140 8.550738 4.467632
16.660589 18.699304 15.835830 177.688135 -5.219287 -176.549526 0.000000 0.000000 0.000000 -20.295853 1.300345 -5.136680 8.796674 16.672454 55.380264 0.847260 4.029898 16.473609 0.236527 -3.125423 -8.628589 0.000000 0.000000 0.000000 21.330499 11.038979 -16.116315 -3.025519 -10.735955 31.394826 -0.409440 -5.265590 -15.170448 -0.286021 -3.436940 9.497841 -2.355211 -1.639488 1.430859 1.006802 -2.240763 1.317633 2.368087 -1.156886 0.680211 7.692812 4.602821 -7.697535 0.817344 5.164511 3.595541 -0.821864 2.652645 2.696134 0.000000 0.000000 0.000000 -0.763645 -10.622984 1.356633 15.619862 -24.997571 3.486603 -7.576121 -42.662504 -30.755625 0.000000 0.000000 0.000000 -7.125000 0.000000 0.000000 -41.367169 55.671722 12.341715 0.000000 0.000000 0.000000 1.735407 11.127615 -18.440101 -9.038502 -15.221761 -1.210235 -20.574607 31.435417 -20.320206 0.000000 0.000000 0.000000 7.125000 0.000000 0.000000 5.049832 8.466221 4.267235
16.659538 18.707154 15.771335 177.701658 -5.098035 -176.602114 0.000000 0.000000 0.000000 -20.283645 1.279836 -5.664660 9.009053 16.810346 56.116641 0.745804 4.384715 15.386960 0.259215 -3.270227 -9.032538 0.000000 0.000000 0.000000 21.425382 10.951909 -15.740351 -2.994905 -10.686447 31.229964 -0.423413 -5.154555 -15.267773 -0.305591 -3.550980 9.816897 -2.228813 -1.523269 1.239252 0.899485 -2.084540 1.538388 2.176819 -1.085517 0.996262 7.829014 4.649925 -7.826075 0.831768 5.195613 3.429665 -0.838241 2.662186 2.669540 0.000000 0.000000 0.000000 -0.860669 -10.423864 2.844939 15.176022 -24.384700 3.301870 -8.143241 -41.702854 -30.215663 0.000000 0.000000 0.000000 -7.125000 0.000000 0.000000 -41.394064 55.141375 11.780718 0.000000 0.000000 0.000000 1.866125 10.694067 -18.137684 -9.061152 -15.257821 -1.216207 -20.972808 31.422120 -20.458324 0.000000 0.000000 0.000000 7.125000 0.000000 0.000000 4.805487 8.263308 4.078258
16.658510 18.715039 15.706831 177.715125 -4.975696 -176.654651 0.000000 0.000000 0.000000 -20.271575 1.259062 -6.192724 9.221469 16.948125 56.852945 0.644485 4.737980 14.299978 0.281294 -3.411147 -9.425651 0.000000 0.000000 0.000000 21.520242 10.865070 -15.364461 -2.964352 -10.637029 31.065407 -0.437429 -5.042899 -15.365183 -0.325060 -3.664372 10.134147 -2.103794 -1.406936 1.050262 0.792837 -1.928178 1.756507 1.987151 -1.013986 1.308238 7.964846 4.696449 -7.950296 0.845837 5.226498 3.264085 -0.854762 2.671629 2.642234 0.000000 0.000000 0.000000 -0.958166 -10.219103 4.331947 14.733946 -23.774111 3.117964 -8.692702 -40.733513 -29.680483 0.000000 0.000000 0.000000 -7.125000 0.000000 0.000000 -41.409511 54.618146 11.223444 0.000000 0.000000 0.000000 1.995841 10.265312 -17.832023 -9.084390 -15.294814 -1.222336 -21.367098 31.403257 -20.599741 0.000000 0.000000 0.000000 7.125000 0.000000 0.000000 4.563951 8.057496 3.891907
16.659223 18.725444 15.641660 177.724516 -4.772934 -176.703482 0.000000 0.000000 0.000000 -20.269697 1.218720 -6.727052 9.436627 17.077529 57.583800 0.553396 4.976503 13.188351 0.258381 -3.264691 -9.017008 0.000000 0.000000 0.000000 21.613359 10.795354 -14.994056 -2.938284 -10.594208 30.923420 -0.454633 -4.885362 -15.468931 -0.337042 -3.729768 10.317678 -2.080843 -1.282115 1.054920 0.735591 -1.761513 1.779495 1.916008 -0.930447 1.318567 8.073327 4.700092 -7.754970 0.833591 5.241335 3.120483 -0.881882 2.673808 2.562301 0.000000 0.000000 0.000000 -1.090650 -9.596803 5.723003 14.422402 -23.332412 2.995247 -7.935365 -39.046990 -29.499206 0.000000 0.000000 0.000000 -7.125000 0.000000 0.000000 -40.577837 54.621564 10.941762 0.000000 0.000000 0.000000 2.051396 10.191201 -17.286276 -9.151139 -15.400853 -1.240066 -21.471973 30.972527 -20.985283 0.000000 0.000000 0.000000 7.125000 0.000000 0.000000 4.530257 7.637170 3.899908
16.659937 18.735848 15.576489 177.733907 -4.570171 -176.752314 0.000000 0.000000 0.000000 -20.267819 1.178378 -7.261380 9.651786 17.206932 58.314656 0.462307 5.215025 12.076723 0.235468 -3.118234 -8.608364 0.000000 0.000000 0.000000 21.706477 10.725638 -14.623652 -2.912216 -10.551386 30.781434 -0.471837 -4.727824 -15.572679 -0.349025 -3.795165 10.501209 -2.057892 -1.157295 1.059578 0.678346 -1.594847 1.802483 1.844864 -0.846908 1.328897 8.181808 4.703736 -7.559645 0.821346 5.256172 2.976882 -0.909002 2.675986 2.482368 0.000000 0.000000 0.000000 -1.223133 -8.974503 7.114059 14.110858 -22.890713 2.872530 -7.178028 -37.360466 -29.317929 0.000000 0.000000 0.000000 -7.125000 0.000000 0.000000 -39.746164 54.624982 10.660080 0.000000 0.000000 0.000000 2.106951 10.117090 -16.740529 -9.217887 -15.506892 -1.257795 -21.576848 30.541796 -21.370826 0.000000 0.000000 0.000000 7.125000 0.000000 0.000000 4.496563 7.216845 3.907908
16.660690 18.744803 15.511911 177.772576 -4.355630 -176.768306 0.000000 0.000000 0.000000 -20.222405 1.148903 -7.844849 9.865217 17.332009 59.035066 0.381927 5.425614 11.051534 0.225651 -3.056211 -8.435230 0.000000 0.000000 0.000000 21.828135 10.677841 -14.300132 -2.888864 -10.512878 30.653968 -0.487392 -4.592984 -15.671982 -0.351406 -3.807978 10.537238 -2.026158 -1.022411 1.079613 0.640224 -1.413147 1.747658 1.789310 -0.753200 1.250810 8.299389 4.684312 -7.219323 0.791441 5.258085 2.837157 -0.946620 2.672006 2.378009 0.000000 0.000000 0.000000 -1.358914 -8.171757 8.346654 13.858952 -22.532459 2.774001 -7.582413 -36.301920 -28.935340 0.000000 0.000000 0.000000 -7.125000 0.000000 0.000000 -39.771924 54.257153 10.239627 0.000000 0.000000 0.000000 2.161134 10.175788 -16.138664 -9.307703 -15.649227 -1.282014 -21.598924 30.058153 -21.634874 0.000000 0.000000 0.000000 7.125000 0.000000 0.000000 4.504968 6.936873 3.940427
